<svg xmlns="http://www.w3.org/2000/svg" class="svg-curve" viewBox="0 0 1440 800"><path id="path10" fill="#09f" fill-opacity="1" d="M 61.481556,0.98273963 71.623627,8.0382951 C 81.956194,15.09385 101.95462,29.204961 99.573843,43.316072 97.193098,57.427181 71.48079,71.538291 74.194869,85.649402 c 2.523619,14.111111 32.997441,28.222208 40.615911,42.333328 7.61846,14.11112 -7.61847,28.22223 -10.14209,42.33333 -2.71407,14.11113 7.76132,28.22224 17.76055,42.33334 9.99926,14.11111 20.47463,28.22223 0,42.33335 -20.47462,14.1111 -70.946927,28.22221 -86.326713,42.33332 -15.094086,14.11111 4.904391,28.22222 15.236932,35.27777 l 10.142097,7.05556 H 0.53382393 v -7.05556 c 0,-7.05555 0,-21.16666 0,-35.27777 0,-14.11111 0,-28.22222 0,-42.33332 0,-14.11112 0,-28.22224 0,-42.33335 0,-14.1111 0,-28.22221 0,-42.33334 0,-14.1111 0,-28.22221 0,-42.33333 0,-14.11112 0,-28.222217 0,-42.333328 0,-14.111111 0,-28.222221 0,-42.33333 0,-14.111111 0,-28.222222 0,-35.2777769 V 0.98273963 Z" style="stroke-width:.334639"/><path id="path10-5" fill="#09f" fill-opacity="1" d="m 61.481556,339.6494 10.14207,7.05556 c 10.33256,7.05555 30.330994,21.16666 27.950212,35.27778 -2.38074,14.1111 -28.093052,28.22221 -25.378972,42.33333 2.52362,14.11111 32.997444,28.2222 40.615914,42.33332 7.61846,14.11112 -7.61847,28.22223 -10.14209,42.33333 -2.71407,14.11113 7.76132,28.22224 17.76055,42.33334 9.99926,14.11111 20.47463,28.22223 0,42.33335 -20.47462,14.1111 -70.946934,28.22221 -86.326714,42.33332 -15.09409,14.11111 4.90439,28.22222 15.23693,35.27777 l 10.1421,7.05556 H 0.533816 v -7.05556 c 0,-7.05555 0,-21.16666 0,-35.27777 0,-14.11111 0,-28.22222 0,-42.33332 0,-14.11112 0,-28.22224 0,-42.33335 0,-14.1111 0,-28.22221 0,-42.33334 0,-14.1111 0,-28.22221 0,-42.33333 0,-14.11112 0,-28.22221 0,-42.33332 0,-14.11112 0,-28.22223 0,-42.33333 0,-14.11112 0,-28.22223 0,-35.27778 v -7.05556 z" style="stroke-width:.334639"/></svg>