<svg xmlns="http://www.w3.org/2000/svg" width="806pt" height="613pt" version="1.1" viewBox="0 0 806 613"><path fill="#69f" stroke="#69f" stroke-width=".094" d="M 0.0 0.0 L 806.0 0.0 L 806.0 613.0 L 0.0 613.0 L 0.0 0.0 Z" opacity="1"/><path fill="#fff" stroke="#fff" stroke-width=".094" d="M 380.3 33.4 C 389.3 25.7 404.0 26.2 412.3 34.6 C 420.1 41.7 422.0 54.0 417.2 63.2 C 414.7 68.3 410.2 71.9 405.3 74.5 C 404.6 113.4 404.0 152.3 403.0 191.2 C 398.0 192.1 393.0 192.9 388.0 193.7 C 387.2 153.9 386.6 114.1 385.6 74.3 C 380.6 71.6 376.0 67.7 373.7 62.3 C 369.1 52.6 371.9 40.1 380.3 33.4 Z" opacity="1"/><path fill="#fff" stroke="#fff" stroke-width=".094" d="M 409.2 85.1 C 458.2 87.7 505.9 109.7 539.3 145.6 C 564.2 172.0 581.4 205.5 588.4 241.1 C 595.6 277.5 592.0 315.8 578.2 350.2 C 566.5 379.8 547.3 406.4 522.8 426.8 C 495.4 449.8 461.4 465.1 425.9 470.1 C 387.0 475.8 346.5 469.2 311.4 451.5 C 271.7 431.8 239.4 397.9 221.5 357.4 C 207.5 326.2 202.0 291.1 205.8 257.1 C 209.9 219.8 225.1 183.9 249.0 155.0 C 270.7 128.7 299.5 108.4 331.4 96.7 C 347.7 90.6 364.8 87.0 382.0 85.4 C 382.0 87.9 382.0 90.3 382.0 92.8 C 339.0 96.7 297.5 115.9 266.9 146.5 C 274.0 153.6 281.1 160.7 288.2 167.8 C 296.5 159.5 305.8 152.3 315.7 146.0 C 314.2 150.1 314.8 155.9 310.4 158.3 C 304.3 162.7 298.6 167.6 293.3 172.8 C 299.5 179.0 305.6 185.2 311.8 191.3 C 310.6 193.0 309.3 194.7 308.0 196.4 C 301.6 190.1 295.3 183.7 288.9 177.4 C 264.3 203.9 250.1 239.6 249.3 275.7 C 258.9 275.7 268.4 275.7 277.9 275.7 C 278.7 248.7 288.5 221.8 306.1 201.2 C 308.6 200.7 311.1 200.1 313.5 199.4 C 313.6 200.3 313.7 202.2 313.8 203.1 C 296.8 222.3 286.6 247.2 285.2 272.7 C 285.6 272.3 286.6 271.4 287.0 271.0 C 287.6 271.5 288.6 272.5 289.2 273.0 C 289.7 272.7 290.7 272.1 291.2 271.8 C 292.1 273.1 292.9 274.4 293.8 275.6 C 296.5 275.7 299.2 275.7 301.9 275.7 C 303.5 271.1 306.2 267.0 310.0 264.0 C 312.7 258.9 316.4 254.4 318.0 248.8 C 321.3 239.0 327.0 230.1 333.6 222.1 C 328.9 217.2 323.9 212.6 319.3 207.7 C 317.1 205.5 317.8 202.0 317.6 199.2 C 318.0 199.1 318.7 199.0 319.0 198.9 C 319.3 199.1 319.9 199.4 320.2 199.6 C 326.0 205.7 332.0 211.5 337.9 217.5 C 350.7 205.0 367.2 196.6 384.8 193.8 C 384.8 194.5 384.8 195.8 384.8 196.4 C 368.9 199.5 352.9 205.6 341.4 217.4 C 332.7 226.3 327.8 238.5 327.2 250.9 C 326.4 251.0 324.8 251.2 324.0 251.4 C 322.0 256.0 321.5 261.0 321.5 265.9 C 318.8 268.8 319.4 273.0 319.6 276.6 C 320.6 274.6 320.7 272.3 321.0 270.2 C 321.7 272.1 322.1 274.1 322.8 276.0 C 325.2 275.1 327.7 274.1 330.1 273.1 C 331.5 276.2 333.1 279.1 334.8 281.9 C 329.9 282.0 324.9 282.0 319.9 282.1 C 319.2 289.6 321.2 297.1 323.6 304.2 C 326.9 314.0 332.3 323.0 339.0 330.8 C 346.6 323.2 354.3 315.5 361.9 307.9 C 359.4 304.5 357.2 300.8 355.2 297.0 C 358.4 298.1 361.8 298.6 364.8 300.2 C 366.9 302.1 368.4 304.6 370.5 306.6 C 375.3 311.5 381.5 314.7 388.0 316.8 C 388.0 319.3 388.0 321.7 388.0 324.2 C 379.9 322.1 372.3 318.1 366.1 312.6 C 358.5 320.2 351.0 327.8 343.3 335.3 C 348.9 340.6 355.2 345.1 361.9 348.7 C 360.2 350.3 358.4 351.8 356.7 353.4 C 350.1 349.8 344.1 345.1 338.5 340.1 C 332.5 346.2 326.4 352.3 320.3 358.3 C 323.6 364.6 329.8 368.5 335.5 372.5 C 345.5 379.6 357.2 383.7 368.3 388.6 C 375.2 391.3 382.6 391.7 389.9 393.0 C 389.9 394.8 390.0 396.7 390.1 398.6 C 371.6 397.2 353.7 391.6 337.6 382.5 C 332.8 383.2 328.3 381.1 323.7 380.1 C 320.5 384.3 314.8 384.2 310.2 382.8 C 307.2 381.2 304.7 378.8 302.0 376.7 C 299.4 379.3 296.7 382.0 294.0 384.6 C 319.5 410.1 354.8 425.3 390.8 427.3 C 390.8 429.7 390.9 432.0 390.9 434.4 C 353.0 432.6 316.0 416.5 288.9 389.9 C 281.7 396.9 274.7 404.0 267.6 411.1 C 300.6 443.8 346.1 463.2 392.5 464.7 C 392.4 462.6 392.4 460.6 392.3 458.6 C 394.4 459.9 396.6 460.0 398.7 458.5 C 398.6 460.6 398.6 462.7 398.5 464.7 C 445.6 464.9 492.2 446.0 526.4 413.7 C 519.9 407.0 513.0 400.6 506.4 393.8 C 503.2 401.1 497.3 406.5 490.8 410.8 C 486.7 413.6 483.1 417.7 478.1 418.7 C 476.1 418.1 474.2 417.0 472.0 416.8 C 469.6 417.0 467.5 418.3 465.3 419.3 C 445.1 429.2 422.6 434.0 400.2 434.6 C 400.2 432.2 400.3 429.9 400.4 427.5 C 421.2 426.9 442.0 422.5 460.7 413.5 C 457.0 412.9 453.2 412.2 449.6 411.1 C 450.1 408.1 451.3 405.3 452.8 402.7 C 448.7 398.4 442.8 398.8 437.5 397.7 C 437.9 395.9 438.2 394.1 438.5 392.3 C 431.8 394.0 425.1 396.0 418.3 397.1 C 415.4 388.4 410.4 379.7 401.7 375.6 C 402.0 368.9 402.1 362.3 402.2 355.6 C 413.0 351.9 425.2 347.5 430.6 336.6 C 434.9 326.4 432.6 314.3 427.2 304.9 C 427.6 304.4 428.6 303.4 429.0 302.9 C 428.4 301.3 427.8 299.8 427.3 298.2 C 425.3 297.1 423.4 296.0 421.5 294.9 C 423.0 294.9 424.5 294.9 426.0 294.8 C 427.2 293.0 428.3 291.3 429.4 289.5 C 431.0 288.9 432.5 288.3 434.1 287.8 C 430.3 287.9 426.5 287.2 423.0 285.8 C 423.9 285.1 424.8 284.5 425.7 283.8 L 424.2 283.9 C 424.8 283.3 425.9 282.3 426.5 281.7 C 425.1 281.5 423.7 281.4 422.4 281.2 C 419.0 279.9 415.5 279.7 412.1 278.7 C 410.5 279.2 408.9 279.7 407.3 280.1 C 409.9 276.7 412.8 273.1 417.2 272.2 C 417.2 270.7 417.1 269.1 417.0 267.6 C 416.3 267.9 415.0 268.4 414.3 268.7 C 414.3 266.2 415.3 263.9 416.9 262.0 C 415.9 261.4 414.9 260.6 414.0 260.0 C 413.0 261.0 412.0 262.0 411.0 263.0 C 409.7 261.1 408.7 258.9 408.1 256.6 C 407.1 256.3 406.1 255.9 405.2 255.6 C 404.8 246.4 405.2 237.1 405.9 227.9 C 408.0 225.5 410.1 221.8 413.7 222.1 C 413.8 224.2 414.1 226.5 413.3 228.5 C 412.1 230.3 410.3 231.6 408.8 233.0 C 412.6 233.1 416.3 233.8 419.7 235.4 C 423.4 237.2 427.3 235.0 430.8 233.7 C 429.6 232.4 428.2 231.2 427.1 229.9 C 428.1 228.0 429.4 226.3 430.6 224.6 C 433.4 223.6 436.1 222.3 439.1 222.2 C 442.2 222.9 445.2 224.8 448.4 223.4 C 449.0 221.8 449.8 220.3 450.8 218.9 C 446.1 216.7 440.7 214.4 435.5 216.2 C 435.3 216.8 435.0 218.0 434.9 218.6 C 433.8 219.1 432.6 219.7 431.5 220.3 C 429.7 223.5 428.1 226.8 426.1 229.9 C 423.9 229.6 425.4 227.0 425.4 225.6 C 425.9 222.8 428.8 221.6 430.7 219.8 C 429.3 218.8 427.9 217.8 426.6 216.7 C 429.0 216.6 431.4 216.6 433.8 216.6 C 433.8 216.0 433.7 214.8 433.7 214.2 C 434.8 213.2 435.9 212.2 437.1 211.3 C 438.4 211.4 439.8 211.6 441.2 211.8 C 440.0 211.1 438.9 210.5 437.7 209.9 C 439.5 208.3 441.3 206.8 443.1 205.3 C 447.8 208.2 452.2 211.6 456.4 215.2 C 462.9 208.8 469.4 202.4 475.8 195.9 C 470.5 191.1 464.9 186.5 458.6 182.8 C 460.7 185.1 463.1 187.2 465.7 188.8 C 466.3 190.3 466.9 191.9 467.4 193.4 C 465.4 192.7 463.6 191.5 462.4 189.8 C 461.0 187.7 458.5 187.0 456.4 185.9 C 457.6 182.2 458.7 178.5 459.5 174.7 C 467.2 179.3 474.4 184.7 480.9 190.8 C 485.0 186.7 489.2 182.7 493.1 178.5 C 487.0 176.8 480.8 174.7 476.1 170.2 C 475.1 170.5 474.2 170.8 473.3 171.1 C 469.5 168.4 465.4 166.4 461.6 163.8 C 462.2 163.4 463.3 162.6 463.9 162.2 C 462.4 161.0 461.0 159.9 459.5 158.7 C 457.3 146.8 450.6 136.1 441.2 128.5 C 446.6 130.2 452.5 130.2 457.2 133.7 C 475.2 141.4 492.1 151.9 506.2 165.6 C 513.3 158.5 520.5 151.4 527.6 144.2 C 495.8 113.7 453.0 94.8 409.0 92.5 C 409.1 90.0 409.1 87.5 409.2 85.1 Z" opacity="1"/><path fill="#fff" stroke="#fff" stroke-width=".094" d="M 560.9 103.0 C 569.3 107.2 576.9 113.1 582.3 120.8 C 587.6 128.5 591.6 137.0 593.6 146.1 C 595.3 154.0 597.8 161.7 601.1 169.1 C 595.9 161.7 589.3 155.4 582.3 149.7 C 575.2 143.9 570.2 136.1 566.1 127.9 C 562.4 120.2 560.9 111.5 560.9 103.0 Z" opacity="1"/><path fill="#fff" stroke="#fff" stroke-width=".094" d="M 203.8 143.0 C 208.5 126.2 219.5 110.3 235.9 103.1 C 235.5 110.2 234.8 117.5 232.1 124.2 C 227.9 134.4 221.6 143.9 213.0 150.9 C 206.5 156.0 200.9 162.1 195.8 168.5 C 199.6 160.4 201.8 151.7 203.8 143.0 Z" opacity="1"/><path fill="#fff" stroke="#fff" stroke-width=".094" d="M 367.1 121.6 C 372.8 121.5 378.2 119.1 383.8 117.8 C 384.0 125.0 384.3 132.2 384.4 139.4 C 380.0 139.1 375.5 138.7 371.1 139.5 C 368.6 140.1 366.7 142.2 364.9 144.0 C 357.9 151.3 351.8 159.4 344.7 166.6 C 336.0 175.3 323.8 179.4 311.8 180.4 C 312.2 169.1 314.3 157.9 317.2 147.0 C 318.2 142.9 319.9 138.9 322.7 135.8 C 327.6 130.1 334.8 126.9 341.9 125.0 C 350.1 122.7 358.6 122.0 367.1 121.6 Z" opacity="1"/><path fill="#fff" stroke="#fff" stroke-width=".094" d="M 408.1 118.1 C 424.9 118.7 440.6 128.2 450.2 141.8 C 456.5 150.4 459.5 161.3 458.1 172.0 C 455.9 192.3 440.5 209.4 421.9 216.8 C 410.5 221.9 397.8 221.6 385.9 224.9 C 375.2 227.7 364.0 232.0 357.0 241.0 C 351.2 248.4 350.0 260.1 356.7 267.3 C 364.5 275.6 376.1 278.0 386.6 280.5 C 386.9 288.2 386.8 295.9 387.3 303.6 C 373.0 299.8 358.2 296.4 345.7 288.3 C 337.5 283.0 331.5 274.5 329.8 264.9 C 327.7 252.5 328.9 239.3 335.3 228.3 C 342.5 215.7 355.3 207.4 368.7 202.7 C 380.6 198.2 393.5 197.6 405.5 193.5 C 413.8 190.7 422.4 186.9 428.1 180.0 C 435.2 171.5 434.5 157.9 427.3 149.7 C 422.3 144.0 414.7 141.9 407.4 141.0 C 407.5 133.3 407.6 125.7 408.1 118.1 Z" opacity="1"/><path fill="#fff" stroke="#fff" stroke-width=".094" d="M 180.1 125.7 C 185.4 134.2 189.3 143.6 190.3 153.6 C 191.1 163.3 191.0 173.2 189.8 182.9 C 202.0 167.4 218.2 153.9 238.0 149.7 C 235.2 155.5 232.1 161.1 228.2 166.2 C 222.2 173.9 214.8 180.2 207.6 186.6 C 202.1 191.5 195.8 195.4 190.5 200.5 C 183.7 207.1 179.6 215.7 175.5 224.1 C 178.7 206.9 177.6 189.1 174.5 171.9 C 171.9 156.4 174.1 140.2 180.1 125.7 Z" opacity="1"/><path fill="#fff" stroke="#fff" stroke-width=".094" d="M 606.1 157.9 C 606.3 146.4 610.5 135.3 616.6 125.7 C 620.3 135.0 622.8 144.9 623.2 155.0 C 624.1 169.2 619.2 182.8 619.5 196.9 C 618.9 206.0 619.5 215.0 621.1 223.9 C 617.1 215.6 612.9 207.2 606.4 200.7 C 600.9 195.4 594.4 191.4 588.8 186.3 C 582.6 180.8 576.1 175.5 570.8 169.1 C 565.9 163.2 561.9 156.6 558.7 149.6 C 568.9 152.1 578.7 156.6 587.0 163.0 C 594.3 169.1 601.5 175.4 607.0 183.3 C 605.7 174.9 605.9 166.4 606.1 157.9 Z" opacity="1"/><path fill="#69f" stroke="#69f" stroke-width=".094" d="M 335.5 137.5 C 337.2 136.9 339.5 137.9 339.0 140.0 C 338.3 144.2 334.8 147.4 330.9 148.7 C 329.5 149.4 328.0 148.9 326.9 147.9 C 326.4 142.9 331.0 138.7 335.5 137.5 Z" opacity="1"/><path fill="#69f" stroke="#69f" stroke-width=".094" d="M 510.7 170.0 C 517.8 162.9 524.9 155.8 532.0 148.7 C 555.8 173.3 572.7 204.5 580.1 237.9 C 583.0 250.4 584.3 263.2 584.7 276.0 C 574.6 276.2 564.5 276.3 554.4 276.2 C 554.0 236.9 537.9 198.3 510.7 170.0 Z" opacity="1"/><path fill="#69f" stroke="#69f" stroke-width=".094" d="M 211.9 275.7 C 212.8 229.8 231.0 184.4 262.5 150.9 C 269.6 158.1 276.7 165.2 283.8 172.3 C 257.9 200.1 243.0 237.7 242.2 275.7 C 232.1 275.7 222.0 275.7 211.9 275.7 Z" opacity="1"/><path fill="#69f" stroke="#69f" stroke-width=".094" d="M 474.0 150.4 C 480.2 153.7 485.9 157.8 491.3 162.2 C 485.4 158.6 478.9 155.5 474.0 150.4 Z" opacity="1"/><path fill="#fff" stroke="#fff" stroke-width=".094" d="M 407.2 158.3 C 415.3 159.1 423.3 160.5 431.1 162.5 C 431.2 165.0 431.2 167.6 431.2 170.1 C 423.4 167.9 415.3 166.3 407.2 165.5 C 407.2 163.1 407.2 160.7 407.2 158.3 Z" opacity="1"/><path fill="#fff" stroke="#fff" stroke-width=".094" d="M 322.7 184.7 C 340.2 170.8 361.6 161.6 383.8 158.9 C 383.9 161.4 384.0 163.8 384.0 166.2 C 362.2 169.0 341.3 178.3 324.6 192.6 C 322.8 194.1 321.3 196.1 319.2 197.1 L 318.6 197.0 C 318.9 192.7 319.1 187.6 322.7 184.7 Z" opacity="1"/><path fill="#fff" stroke="#fff" stroke-width=".094" d="M 318.3 180.8 C 319.8 180.5 321.3 180.2 322.7 179.9 C 318.1 188.8 316.8 198.9 317.4 208.9 C 315.1 205.7 313.9 201.9 313.9 198.1 C 310.5 199.7 306.8 200.4 303.1 200.9 C 310.6 196.5 315.2 188.8 318.3 180.8 Z" opacity="1"/><path fill="#69f" stroke="#69f" stroke-width=".094" d="M 509.3 179.2 C 533.0 205.6 546.8 240.7 547.3 276.2 C 537.7 276.2 528.2 276.2 518.7 276.2 C 518.2 246.3 506.1 216.9 485.4 195.3 C 489.7 191.0 494.0 186.7 498.2 182.4 C 500.7 184.1 503.1 185.8 505.7 187.3 C 506.7 186.7 507.6 186.1 508.6 185.5 C 508.8 183.4 509.0 181.3 509.3 179.2 Z" opacity="1"/><path fill="#fff" stroke="#fff" stroke-width=".094" d="M 156.8 183.6 C 168.8 201.8 173.1 224.1 173.4 245.7 C 179.2 226.3 189.6 207.2 206.9 195.8 C 204.5 218.9 194.1 240.3 181.6 259.6 C 175.8 269.7 171.4 280.8 169.5 292.3 C 167.3 277.9 164.4 263.6 160.6 249.6 C 157.7 235.9 154.2 222.1 154.1 208.1 C 153.9 199.8 154.9 191.6 156.8 183.6 Z" opacity="1"/><path fill="#fff" stroke="#fff" stroke-width=".094" d="M 639.7 183.4 C 646.1 205.9 640.7 229.3 635.6 251.4 C 631.9 264.9 629.2 278.6 627.2 292.4 C 625.7 282.8 622.1 273.7 618.0 264.9 C 613.5 256.3 607.6 248.4 603.4 239.5 C 596.5 225.8 591.3 211.1 589.8 195.7 C 607.1 207.4 617.7 226.6 623.5 246.3 C 623.1 224.5 628.2 202.2 639.7 183.4 Z" opacity="1"/><path fill="#69f" stroke="#69f" stroke-width=".094" d="M 460.9 220.0 C 465.5 214.1 471.6 209.6 476.7 204.0 C 478.3 205.5 479.8 207.4 482.0 208.3 C 483.5 208.4 484.8 207.6 486.3 207.3 C 487.2 208.5 488.2 209.7 489.2 210.9 C 487.0 210.6 484.8 210.3 482.7 209.9 C 482.8 210.5 483.0 211.6 483.1 212.1 C 482.3 211.9 480.6 211.6 479.8 211.4 C 480.6 213.4 481.2 215.7 483.3 216.7 C 487.3 218.9 490.8 221.8 494.2 224.9 C 494.7 223.6 495.3 222.3 495.9 221.1 C 498.2 224.8 500.1 228.8 499.7 233.3 C 499.0 233.3 497.6 233.2 497.0 233.2 C 495.4 236.1 496.4 239.7 496.0 242.8 C 495.3 242.8 493.9 242.9 493.1 242.9 C 492.5 239.7 492.3 236.4 492.2 233.1 C 490.1 231.6 487.3 227.2 484.7 229.6 C 484.1 231.9 484.1 234.2 483.8 236.5 C 482.4 235.4 481.0 234.3 479.6 233.1 C 480.4 232.8 481.9 232.1 482.6 231.7 C 481.1 231.0 479.5 230.4 477.9 230.0 C 475.1 227.5 472.8 224.0 468.9 223.1 C 466.2 222.3 462.7 222.7 460.9 220.0 Z" opacity="1"/><path fill="#f5f8ff" stroke="#f5f8ff" stroke-width=".094" d="M 465.5 219.2 C 466.4 218.0 468.9 219.3 467.8 220.7 C 466.9 221.9 464.4 220.6 465.5 219.2 Z" opacity="1"/><path fill="#fff" stroke="#fff" stroke-width=".094" d="M 388.6 226.8 C 393.2 226.1 397.8 225.3 402.3 224.6 C 401.8 261.1 400.8 297.7 400.3 334.2 C 397.2 335.3 394.1 336.3 391.0 337.3 C 389.9 300.5 389.6 263.6 388.6 226.8 Z" opacity="1"/><path fill="#69f" stroke="#69f" stroke-width=".094" d="M 453.3 227.1 C 454.2 226.2 455.1 225.3 456.0 224.4 C 457.1 225.5 458.1 226.7 459.2 227.8 C 458.2 227.5 456.3 227.1 455.3 226.8 C 456.7 228.6 458.1 230.4 459.5 232.2 C 458.0 231.8 456.5 231.3 455.0 230.9 C 455.2 230.4 455.8 229.5 456.0 229.1 C 455.1 228.4 454.2 227.8 453.3 227.1 Z" opacity="1"/><path fill="#fff" stroke="#fff" stroke-width=".094" d="M 366.1 244.3 C 371.8 239.3 378.5 235.6 385.7 233.2 C 385.8 235.7 385.9 238.2 386.0 240.7 C 380.9 242.6 376.1 245.2 372.1 248.8 C 375.0 249.9 378.1 251.1 381.3 250.8 C 382.8 248.9 384.4 247.1 386.0 245.3 C 386.2 249.9 386.8 254.5 385.9 259.0 C 384.2 260.9 381.3 261.5 379.6 263.4 C 378.1 265.0 376.7 266.6 375.3 268.2 C 376.5 267.8 377.8 267.5 379.0 267.1 C 379.5 268.8 380.5 270.5 380.5 272.4 C 379.6 273.6 378.5 274.7 377.5 275.7 C 377.9 273.7 378.4 271.8 378.8 269.8 C 377.0 271.7 374.7 272.7 372.2 273.5 C 365.7 270.9 357.9 268.2 354.9 261.2 C 351.7 252.4 356.1 242.7 363.1 237.1 C 364.2 239.4 365.2 241.9 366.1 244.3 Z" opacity="1"/><path fill="#69f" stroke="#69f" stroke-width=".094" d="M 503.7 237.6 C 508.8 249.8 511.1 263.0 511.5 276.2 C 510.1 276.2 508.7 276.2 507.2 276.2 C 506.8 274.8 506.9 272.7 505.0 272.5 C 504.4 273.7 503.9 275.1 503.5 276.4 C 501.9 275.8 499.7 276.0 498.8 274.3 C 496.0 269.6 493.0 264.9 490.5 259.9 C 491.4 257.2 492.8 254.6 494.0 252.0 C 493.5 250.8 493.0 249.6 492.4 248.4 C 493.9 246.9 495.5 245.6 497.3 244.3 C 498.1 242.3 499.0 240.2 499.9 238.1 C 500.2 242.0 500.5 245.9 501.9 249.6 C 502.7 245.7 503.0 241.6 503.7 237.6 Z" opacity="1"/><path fill="#fff" stroke="#fff" stroke-width=".094" d="M 177.5 282.1 C 180.9 270.6 187.0 259.8 195.5 251.3 C 196.9 261.2 196.8 271.2 195.0 281.0 C 192.2 295.9 185.1 309.6 182.3 324.5 C 180.6 334.9 180.6 345.5 182.0 355.9 C 177.0 347.9 174.0 338.9 169.1 331.0 C 163.0 321.5 157.2 311.7 150.7 302.4 C 141.8 289.4 135.9 274.4 133.9 258.8 C 144.9 265.5 154.7 274.5 161.2 285.7 C 166.0 293.7 170.1 302.0 172.4 311.1 C 172.1 301.2 174.8 291.5 177.5 282.1 Z" opacity="1"/><path fill="#fff" stroke="#fff" stroke-width=".094" d="M 601.2 251.2 C 606.5 256.9 611.2 263.3 614.6 270.3 C 618.7 278.7 620.9 287.8 623.0 296.9 C 624.1 301.7 624.0 306.6 624.2 311.4 C 626.9 300.3 632.4 290.2 638.7 280.7 C 644.9 271.7 653.4 264.4 662.8 258.8 C 660.6 275.8 653.6 291.9 643.7 305.8 C 638.6 313.1 634.1 320.8 629.3 328.3 C 623.6 337.0 620.0 346.8 614.9 355.7 C 615.8 345.2 616.1 334.5 614.3 324.0 C 611.8 311.3 606.2 299.5 603.0 286.9 C 600.0 275.3 599.4 263.1 601.2 251.2 Z" opacity="1"/><path fill="#69f" stroke="#69f" stroke-width=".094" d="M 306.9 271.9 C 308.9 271.4 310.9 272.1 312.9 272.2 C 312.8 273.4 312.7 274.6 312.6 275.7 C 309.9 275.7 307.1 275.7 304.4 275.6 C 305.2 274.3 305.9 273.0 306.9 271.9 Z" opacity="1"/><path fill="#fff" stroke="#fff" stroke-width=".094" d="M 375.4 273.4 C 375.6 273.6 375.6 273.6 375.4 273.4 Z" opacity="1"/><path fill="#69f" stroke="#69f" stroke-width=".094" d="M 211.9 281.8 C 222.0 281.8 232.1 281.8 242.2 281.8 C 242.4 286.1 242.7 290.3 243.2 294.6 C 241.4 294.0 239.7 293.4 238.0 293.0 C 238.4 294.9 239.1 296.8 240.2 298.5 C 239.2 298.4 237.3 298.3 236.3 298.2 C 235.6 296.3 234.8 294.5 234.0 292.7 C 232.5 292.4 231.1 291.7 229.9 290.7 C 229.5 290.6 228.8 290.4 228.5 290.3 C 226.9 292.8 225.0 295.1 222.0 295.9 C 220.6 300.8 220.8 305.9 220.3 311.0 C 219.5 318.8 222.3 326.5 225.5 333.6 C 225.3 329.8 224.4 325.9 225.0 322.0 C 225.5 319.6 227.3 317.8 228.6 315.8 C 231.3 320.3 234.0 324.9 237.7 328.6 C 237.8 326.2 237.8 323.7 237.9 321.3 C 240.4 325.9 244.0 329.8 247.7 333.6 C 247.6 331.5 247.5 329.5 247.4 327.5 C 248.6 330.6 249.7 333.7 250.9 336.9 C 251.6 336.9 253.0 337.0 253.6 337.1 C 260.8 354.9 271.5 371.2 284.5 385.3 C 277.4 392.4 270.3 399.5 263.2 406.6 C 241.6 383.7 225.9 355.4 218.0 325.0 C 214.3 310.9 212.5 296.3 211.9 281.8 Z" opacity="1"/><path fill="#69f" stroke="#69f" stroke-width=".094" d="M 249.4 281.8 C 259.1 281.8 268.7 281.8 278.3 281.8 C 276.7 284.0 274.7 286.1 274.3 288.8 C 273.3 293.4 274.0 298.5 271.7 302.7 C 267.6 304.1 262.9 303.1 259.3 300.9 C 256.6 300.8 253.0 302.5 251.2 299.7 C 249.5 293.9 249.8 287.8 249.4 281.8 Z" opacity="1"/><path fill="#69f" stroke="#69f" stroke-width=".094" d="M 305.1 281.8 C 307.5 281.8 309.9 281.7 312.3 281.9 C 313.2 285.3 313.2 288.8 313.7 292.2 C 316.3 308.2 323.6 323.3 334.3 335.4 C 328.7 341.2 322.9 346.7 317.4 352.5 C 316.4 350.9 315.4 349.3 314.3 347.7 C 315.1 345.3 316.3 342.7 315.6 340.1 C 314.3 335.9 311.1 332.5 310.4 328.1 C 309.6 323.5 310.2 318.8 309.5 314.1 C 308.8 310.7 307.2 307.5 307.2 304.0 C 307.1 302.0 307.4 300.0 307.0 298.1 C 306.1 296.8 304.9 295.8 303.8 294.7 C 305.0 295.2 306.1 295.8 307.3 296.3 C 306.5 292.2 305.2 288.1 303.4 284.3 C 304.0 283.4 304.5 282.6 305.1 281.8 Z" opacity="1"/><path fill="#69f" stroke="#69f" stroke-width=".094" d="M 518.7 282.3 C 528.2 282.3 537.7 282.3 547.2 282.3 C 546.6 303.8 541.4 325.3 531.7 344.5 C 529.8 340.6 527.9 336.8 526.1 332.9 C 524.8 333.2 523.4 333.5 522.1 333.9 C 522.4 339.4 521.6 345.0 519.6 350.2 C 520.6 350.7 521.6 351.1 522.6 351.6 C 522.8 352.8 523.1 354.1 523.4 355.3 C 524.0 355.3 525.3 355.3 526.0 355.3 C 521.7 362.1 517.0 368.7 511.9 374.8 C 510.4 374.4 509.0 374.0 507.5 373.6 C 509.3 368.3 512.8 363.5 513.5 357.9 C 511.3 354.1 506.3 355.4 502.7 355.4 C 502.7 351.2 503.3 347.1 504.1 343.0 C 505.0 338.6 505.0 334.0 507.1 330.0 C 514.2 315.2 518.0 298.8 518.7 282.3 Z" opacity="1"/><path fill="#69f" stroke="#69f" stroke-width=".094" d="M 554.4 282.3 C 564.4 282.3 574.5 282.3 584.6 282.3 C 583.7 329.3 564.1 375.8 530.9 409.2 C 523.5 402.4 516.6 395.1 509.5 388.0 C 537.2 360.2 553.4 321.5 554.4 282.3 Z" opacity="1"/><path fill="#69f" stroke="#69f" stroke-width=".094" d="M 494.7 289.0 C 498.9 288.2 502.0 285.2 505.0 282.3 C 507.2 282.3 509.3 282.3 511.5 282.3 C 511.0 295.8 508.0 309.1 503.0 321.6 C 502.4 321.5 501.2 321.4 500.7 321.3 C 499.3 325.6 498.1 329.9 496.1 334.0 C 495.3 336.4 492.7 336.9 490.8 338.0 C 487.8 339.4 485.5 342.1 482.0 342.3 C 477.6 342.9 473.1 343.0 468.7 343.3 C 468.4 342.0 468.2 340.6 467.9 339.3 C 474.3 338.4 480.4 336.5 486.8 335.7 C 489.1 333.6 489.5 330.2 490.3 327.3 C 491.7 320.9 493.4 313.7 489.7 307.7 C 488.2 309.4 486.7 311.1 485.2 312.8 C 487.3 309.0 488.6 304.8 489.3 300.5 C 489.9 296.1 494.9 293.7 494.7 289.0 Z" opacity="1"/><path fill="#adc5ff" stroke="#adc5ff" stroke-width=".094" d="M 433.2 284.1 C 436.1 282.5 433.4 287.4 433.2 284.1 Z" opacity="1"/><path fill="#fff" stroke="#fff" stroke-width=".094" d="M 404.3 285.7 C 418.2 291.7 428.1 305.3 430.6 320.1 C 431.3 325.6 431.5 331.6 428.7 336.7 C 425.7 342.3 420.2 346.0 414.7 348.7 C 403.9 354.1 391.8 356.1 380.6 360.5 C 377.0 362.0 372.4 364.4 372.6 368.9 C 376.2 374.1 383.4 373.5 389.0 374.6 C 389.1 380.0 389.3 385.4 389.5 390.8 C 379.6 389.4 368.9 388.6 360.6 382.3 C 352.4 376.3 351.3 363.4 357.5 355.5 C 360.8 351.3 365.5 348.4 370.3 346.2 C 379.3 342.3 388.9 340.2 398.2 337.3 C 402.7 335.8 407.6 333.5 409.5 328.8 C 411.9 321.9 409.9 313.6 404.0 309.0 C 404.0 301.2 403.9 293.5 404.3 285.7 Z" opacity="1"/><path fill="#f7f9ff" stroke="#f7f9ff" stroke-width=".094" d="M 421.6 297.7 C 423.5 298.1 425.9 297.9 427.1 299.8 C 426.9 300.6 426.5 302.4 426.3 303.3 C 424.7 301.5 423.1 299.6 421.6 297.7 Z" opacity="1"/><path fill="#fff" stroke="#fff" stroke-width=".094" d="M 195.3 306.2 C 200.7 318.5 203.6 331.8 204.2 345.1 C 205.0 359.4 202.5 373.7 203.9 387.9 C 204.6 397.6 207.2 406.9 210.4 415.9 C 207.3 411.6 204.6 407.0 200.9 403.1 C 189.6 391.3 175.6 382.5 164.4 370.6 C 152.4 358.0 143.3 342.5 139.0 325.7 C 153.5 332.3 165.3 343.4 176.1 354.9 C 180.9 360.1 186.0 365.1 189.7 371.2 C 188.3 365.9 187.6 360.4 187.4 355.0 C 186.9 345.6 186.4 336.1 188.3 326.9 C 189.7 319.7 192.2 312.8 195.3 306.2 Z" opacity="1"/><path fill="#fff" stroke="#fff" stroke-width=".094" d="M 601.3 306.3 C 606.8 317.0 609.6 329.0 609.8 341.0 C 609.6 351.1 609.4 361.2 607.1 371.1 C 611.0 364.5 616.6 359.2 621.7 353.7 C 632.2 342.6 643.8 332.1 657.7 325.5 C 653.7 341.2 645.6 355.7 634.8 367.8 C 623.0 381.4 607.2 390.8 595.0 404.0 C 591.5 407.7 588.9 412.1 586.2 416.3 C 591.0 403.1 593.7 389.1 593.2 375.0 C 592.6 362.1 591.6 349.1 593.2 336.2 C 594.5 325.9 597.2 315.8 601.3 306.3 Z" opacity="1"/><path fill="#69f" stroke="#69f" stroke-width=".094" d="M 485.1 312.2 C 484.8 314.4 485.0 316.9 484.0 318.9 C 482.2 320.5 479.8 320.9 477.7 321.6 C 480.5 318.8 483.9 316.3 485.1 312.2 Z" opacity="1"/><path fill="#fff" stroke="#fff" stroke-width=".094" d="M 403.2 317.8 C 404.7 317.5 406.2 317.3 407.6 317.1 C 408.2 319.4 408.7 321.7 409.1 324.0 C 407.1 324.3 405.1 324.7 403.1 325.0 C 403.1 322.6 403.2 320.2 403.2 317.8 Z" opacity="1"/><path fill="#69f" stroke="#69f" stroke-width=".094" d="M 456.0 325.4 C 457.9 323.9 460.1 322.7 462.3 321.7 C 461.3 326.5 457.1 329.1 453.6 332.1 C 452.8 331.3 451.9 330.5 451.1 329.7 C 452.2 328.9 453.4 328.0 454.5 327.1 C 453.8 326.4 453.0 325.8 452.3 325.1 C 452.8 324.3 453.2 323.4 453.7 322.6 C 454.4 323.5 455.2 324.5 456.0 325.4 Z" opacity="1"/><path fill="#d9e3ff" stroke="#d9e3ff" stroke-width=".094" d="M 403.2 331.4 C 406.5 331.7 401.6 334.4 403.2 331.4 Z" opacity="1"/><path fill="#7ba6ff" stroke="#7ba6ff" stroke-width=".094" d="M 459.6 338.5 C 460.7 337.2 461.9 335.9 463.0 334.7 C 463.8 336.1 464.5 337.6 465.3 339.0 C 464.6 339.9 463.9 340.9 463.2 341.8 C 462.0 340.7 460.8 339.6 459.6 338.5 Z" opacity="1"/><path fill="#69f" stroke="#69f" stroke-width=".094" d="M 433.6 356.5 C 441.4 353.1 448.7 348.3 455.1 342.7 C 456.4 343.9 457.7 345.1 459.0 346.4 C 455.7 348.9 451.9 350.8 448.1 352.3 C 445.0 353.3 445.2 358.2 441.7 358.7 C 437.3 359.5 432.9 359.8 428.5 360.6 C 429.7 358.8 431.4 357.3 433.6 356.5 Z" opacity="1"/><path fill="#69f" stroke="#69f" stroke-width=".094" d="M 426.9 346.4 C 430.9 345.6 435.2 345.2 439.1 346.6 C 435.1 348.0 430.8 348.0 426.9 346.4 Z" opacity="1"/><path fill="#fff" stroke="#fff" stroke-width=".094" d="M 234.9 346.4 C 238.7 350.1 241.0 355.1 241.7 360.3 C 237.6 356.8 236.8 351.2 234.9 346.4 Z" opacity="1"/><path fill="#69f" stroke="#69f" stroke-width=".094" d="M 416.0 352.5 C 418.6 352.0 420.9 350.8 423.0 349.2 C 425.6 349.9 428.3 350.4 431.0 350.7 C 428.9 351.4 426.9 352.1 424.9 352.8 C 424.5 352.1 423.6 350.5 423.2 349.7 C 423.2 350.5 423.2 352.2 423.2 353.1 C 420.3 354.7 417.1 355.3 413.9 356.1 C 414.6 354.9 415.3 353.7 416.0 352.5 Z" opacity="1"/><path fill="#fff" stroke="#fff" stroke-width=".094" d="M 391.3 359.5 C 394.1 358.5 397.0 357.6 399.8 356.7 C 399.1 389.9 398.6 423.1 397.7 456.3 C 396.2 456.3 394.7 456.2 393.2 456.2 C 392.5 424.0 392.0 391.7 391.3 359.5 Z" opacity="1"/><path fill="#fff" stroke="#fff" stroke-width=".094" d="M 380.7 362.4 C 383.4 361.4 386.3 360.4 389.1 359.4 C 389.0 360.9 388.9 362.3 388.9 363.7 C 386.1 363.3 383.4 362.8 380.7 362.4 Z" opacity="1"/><path fill="#69f" stroke="#69f" stroke-width=".094" d="M 276.6 364.2 C 280.2 366.4 283.7 368.8 287.7 370.3 C 289.2 371.2 290.6 369.9 292.0 369.5 C 293.8 370.4 295.6 371.3 297.4 372.2 C 294.8 375.0 292.2 377.7 289.5 380.2 C 285.0 375.0 280.5 369.8 276.6 364.2 Z" opacity="1"/><path fill="#fff" stroke="#fff" stroke-width=".094" d="M 213.3 400.2 C 211.7 389.9 212.1 379.4 212.8 369.0 C 219.1 377.4 225.1 386.3 228.9 396.1 C 234.8 410.8 236.0 426.9 241.3 441.8 C 244.9 451.7 252.7 459.2 260.0 466.5 C 245.5 460.5 233.2 450.2 218.6 444.3 C 195.2 434.8 172.4 420.3 159.5 397.9 C 178.9 400.1 195.6 411.1 211.6 421.5 C 215.6 423.9 219.3 426.8 222.8 429.9 C 219.3 420.1 214.7 410.5 213.3 400.2 Z" opacity="1"/><path fill="#fff" stroke="#fff" stroke-width=".094" d="M 571.0 389.0 C 574.5 382.0 578.9 375.4 583.8 369.2 C 584.6 380.1 585.0 391.1 583.1 401.9 C 581.4 411.6 577.2 420.6 573.9 429.8 C 579.9 424.3 587.1 420.3 593.9 415.9 C 607.1 407.4 621.4 399.8 637.2 397.9 C 624.2 420.5 601.1 435.0 577.6 444.5 C 563.2 450.3 551.1 460.6 536.7 466.4 C 539.3 463.4 542.3 460.9 545.0 458.0 C 550.3 452.2 554.6 445.3 556.8 437.7 C 561.6 421.5 563.0 404.2 571.0 389.0 Z" opacity="1"/><path fill="#a6c0ff" stroke="#a6c0ff" stroke-width=".094" d="M 387.2 371.2 C 388.1 369.9 390.5 371.3 389.5 372.6 C 388.6 373.9 386.2 372.6 387.2 371.2 Z" opacity="1"/><path fill="#fff" stroke="#fff" stroke-width=".094" d="M 401.8 378.3 C 405.0 380.3 408.1 382.6 410.2 385.8 C 416.3 395.2 418.3 406.5 419.8 417.4 C 417.1 407.3 410.8 398.1 401.7 392.9 C 401.7 388.0 401.6 383.1 401.8 378.3 Z" opacity="1"/><path fill="#fff" stroke="#fff" stroke-width=".094" d="M 244.9 423.3 C 257.6 429.9 269.5 438.2 279.0 449.1 C 284.8 455.6 289.9 462.7 295.3 469.6 C 300.2 475.8 306.5 481.2 314.0 484.0 C 321.3 487.3 329.2 488.5 336.6 491.4 C 328.8 491.1 321.0 490.9 313.2 490.2 C 300.1 489.4 287.1 490.3 274.0 490.8 C 262.3 491.2 250.6 489.1 239.4 485.5 C 226.2 481.2 213.6 474.7 203.3 465.3 C 227.7 464.6 252.2 468.7 275.8 474.9 C 267.5 466.9 259.8 458.0 254.2 447.9 C 249.9 440.2 247.0 431.8 244.9 423.3 Z" opacity="1"/><path fill="#fff" stroke="#fff" stroke-width=".094" d="M 511.5 456.5 C 522.1 442.5 536.1 431.2 551.8 423.3 C 548.3 438.1 541.5 452.1 531.6 463.5 C 528.2 467.5 524.7 471.3 521.0 474.9 C 544.5 468.6 568.9 464.6 593.4 465.2 C 578.8 478.6 559.7 486.3 540.4 489.6 C 528.0 491.9 515.5 490.2 503.0 490.0 C 488.5 489.4 474.1 491.2 459.6 491.4 C 470.1 487.8 481.4 486.0 490.8 479.7 C 499.5 473.8 504.9 464.5 511.5 456.5 Z" opacity="1"/><path fill="#fff" stroke="#fff" stroke-width=".094" d="M 332.3 502.3 C 340.0 500.3 347.8 497.1 355.9 497.8 C 363.1 498.2 370.3 499.2 377.0 502.0 C 381.3 503.8 385.3 506.3 390.0 507.0 C 396.0 508.0 402.3 507.4 407.7 504.7 C 418.5 499.1 431.1 496.6 443.1 498.3 C 459.8 502.2 476.2 507.9 493.1 511.2 C 505.7 513.8 518.7 515.3 531.6 513.8 C 528.4 519.4 522.5 522.3 516.9 524.8 C 502.1 531.0 485.7 534.4 469.7 532.5 C 452.2 527.7 436.3 517.5 418.1 515.3 C 413.4 514.6 408.6 515.4 404.5 517.7 C 419.2 524.0 433.1 532.3 445.3 542.7 C 455.6 552.2 464.2 563.8 469.3 576.8 C 462.1 577.4 454.6 579.2 447.6 576.5 C 442.3 574.6 440.1 569.0 437.3 564.7 C 428.9 550.4 419.6 535.5 404.6 527.5 C 400.8 525.7 396.6 522.9 392.4 524.6 C 384.1 527.5 377.0 532.8 371.1 539.1 C 363.2 547.6 357.4 557.7 351.5 567.6 C 349.4 571.0 347.3 574.8 343.4 576.3 C 336.3 579.3 328.5 577.3 321.2 576.9 C 327.9 560.2 339.7 545.6 354.5 535.5 C 364.3 528.2 375.1 522.5 386.2 517.4 C 377.1 513.1 366.9 515.8 357.9 518.7 C 346.5 522.3 335.9 527.6 324.6 531.5 C 318.7 533.6 312.2 533.1 306.0 532.8 C 295.5 532.0 285.1 529.5 275.4 525.6 C 269.2 522.9 262.6 519.8 258.9 513.9 C 284.0 516.5 308.4 508.8 332.3 502.3 Z" opacity="1"/></svg>